<?xml version="1.0" standalone="no"?>
<!DOCTYPE svg PUBLIC "-//W3C//DTD SVG 20010904//EN"
 "http://www.w3.org/TR/2001/REC-SVG-20010904/DTD/svg10.dtd">
<svg version="1.0" xmlns="http://www.w3.org/2000/svg"
 width="512.000000pt" height="512.000000pt" viewBox="0 0 512.000000 512.000000"
 preserveAspectRatio="xMidYMid meet">

<g transform="translate(0.000000,512.000000) scale(0.100000,-0.100000)"
fill="#000000" stroke="none">
<path d="M2177 4592 c-806 -260 -1113 -362 -1123 -376 -12 -17 -14 -311 -14
-2008 l0 -1989 25 -24 24 -25 1471 0 1471 0 24 25 25 24 0 1991 0 1991 -25 24
-24 25 -326 0 -325 0 0 325 0 326 -25 24 c-13 14 -34 25 -47 24 -13 0 -522
-161 -1131 -357z m1040 -339 c-2 -2 -357 -2 -789 -1 l-784 3 785 251 786 251
3 -250 c1 -138 1 -252 -1 -254z m703 -2043 l0 -1880 -1360 0 -1360 0 0 1880 0
1880 1360 0 1360 0 0 -1880z"/>
<path d="M2067 3349 c-79 -19 -152 -62 -222 -133 -119 -120 -168 -252 -167
-451 1 -132 24 -232 82 -353 117 -244 339 -452 634 -593 144 -69 170 -71 279
-24 251 108 485 293 613 486 233 351 204 785 -66 984 -157 115 -356 123 -567
21 l-93 -45 -84 43 c-46 24 -113 50 -150 60 -69 17 -196 20 -259 5z m274 -178
c31 -12 87 -42 125 -66 38 -25 80 -45 93 -45 13 0 53 18 89 41 105 67 183 92
282 93 73 1 93 -3 141 -27 194 -95 269 -368 172 -628 -80 -216 -308 -438 -590
-576 l-94 -45 -92 44 c-306 149 -501 340 -587 576 -103 282 -22 559 188 643
63 26 193 21 273 -10z"/>
<path d="M1466 1109 c-20 -16 -26 -29 -26 -59 0 -30 6 -43 26 -59 27 -21 29
-21 1094 -21 1065 0 1067 0 1094 21 37 29 37 89 0 118 -27 21 -29 21 -1094 21
-1065 0 -1067 0 -1094 -21z"/>
<path d="M1466 809 c-20 -16 -26 -29 -26 -59 0 -30 6 -43 26 -59 27 -21 29
-21 1094 -21 1065 0 1067 0 1094 21 37 29 37 89 0 118 -27 21 -29 21 -1094 21
-1065 0 -1067 0 -1094 -21z"/>
</g>
</svg>
